# xmcd
#
# Track frame offsets:
#	183
#	20698
#	43618
#	63160
#	90448
#	110898
#	132533
#	163670
#	188170
#	215138
#	236660
#
# Disc length: 3385 seconds
#
# Revision: 2
# Processed by: cddbd v1.5.1PL2 Copyright (c) Steve Scherf et al.
# Submitted via: audiograbber 1.82.02
#
DISCID=9f0d370b
DTITLE=Larry Carlton - Renegade Gentleman
DYEAR=1993
DGENRE=Blues
TTITLE0=Crazy Mama
TTITLE1=R.C.M.
TTITLE2=Sleep Medicine
TTITLE3=Cold Day In Hell
TTITLE4=Anthem
TTITLE5=Amen A.C.
TTITLE6=Never Saw Naw
TTITLE7=Farm Jazz
TTITLE8=Nothin' Comes
TTITLE9=Bogner
TTITLE10=Red Hot Poker
EXTD=
EXTT0=
EXTT1=
EXTT2=
EXTT3=
EXTT4=
EXTT5=
EXTT6=
EXTT7=
EXTT8=
EXTT9=
EXTT10=
PLAYORDER=
